<svg width="20" height="20" viewBox="0 0 20 20" fill="none" xmlns="http://www.w3.org/2000/svg">
<path d="M9.14286 9.14286H0.857143C0.384 9.14286 0 9.52686 0 10C0 10.4731 0.384 10.8571 0.857143 10.8571H9.14286V19.1429C9.14286 19.616 9.52686 20 10 20C10.4731 20 10.8571 19.616 10.8571 19.1429V10.8571H19.1429C19.616 10.8571 20 10.4731 20 10C20 9.52686 19.616 9.14286 19.1429 9.14286H10.8571V0.857143C10.8571 0.384 10.4731 0 10 0C9.52686 0 9.14286 0.384 9.14286 0.857143V9.14286Z" fill="black"/>
</svg>
