<svg width="29" height="20" viewBox="0 0 29 20" fill="none" xmlns="http://www.w3.org/2000/svg">
<path d="M0.354673 10.4557L10.6686 19.7286C10.8714 19.91 11.124 20 11.3765 20C11.6687 20 11.9581 19.88 12.1695 19.6443L28.1014 1.78571C28.2844 1.58143 28.3738 1.32714 28.3738 1.07143C28.3738 0.472857 27.8943 0 27.3112 0C27.019 0 26.7281 0.12 26.5182 0.355714L11.2942 17.42L1.77336 8.85714C1.56907 8.67571 1.31655 8.58571 1.06402 8.58571C0.472424 8.58571 0 9.06571 0 9.65571C0 9.95 0.11917 10.2443 0.354673 10.4557Z" fill="black"/>
</svg>
