<svg width="20" height="20" viewBox="0 0 20 20" fill="none" xmlns="http://www.w3.org/2000/svg">
<path fill-rule="evenodd" clip-rule="evenodd" d="M10 8.48429L18.17 0.312857C18.3786 0.104286 18.6543 0 18.9286 0C19.5057 0 20 0.462857 20 1.07C20 1.34571 19.8957 1.62 19.6871 1.83L11.5157 10L19.6857 18.17C19.8957 18.38 20 18.6543 20 18.9286C20 19.5386 19.5014 20 18.9286 20C18.6543 20 18.3786 19.8957 18.17 19.6871L10 11.5171L1.83 19.6871C1.62143 19.8957 1.34571 20 1.07143 20C0.498571 20 0 19.5386 0 18.9286C0 18.6543 0.104285 18.38 0.314285 18.17L8.48429 10L0.312857 1.83C0.104286 1.62 0 1.34571 0 1.07C0 0.462857 0.494286 0 1.07143 0C1.34571 0 1.62143 0.104286 1.83 0.312857L10 8.48429Z" fill="black"/>
</svg>
