<svg width="14" height="22" viewBox="0 0 14 22" fill="none" xmlns="http://www.w3.org/2000/svg">
<path d="M7.9 1C7.9 0.502944 7.49706 0.1 7 0.1C6.50294 0.1 6.1 0.502944 6.1 1H7.9ZM6.3636 21.6364C6.71508 21.9879 7.28492 21.9879 7.6364 21.6364L13.364 15.9088C13.7154 15.5574 13.7154 14.9875 13.364 14.636C13.0125 14.2846 12.4426 14.2846 12.0912 14.636L7 19.7272L1.90883 14.636C1.55736 14.2846 0.987511 14.2846 0.636039 14.636C0.284567 14.9875 0.284567 15.5574 0.636039 15.9088L6.3636 21.6364ZM6.1 1L6.1 21H7.9L7.9 1H6.1Z" fill="black"/>
</svg>
