<svg width="14" height="22" viewBox="0 0 14 22" fill="none" xmlns="http://www.w3.org/2000/svg">
<path d="M6.1 21C6.1 21.4971 6.50294 21.9 7 21.9C7.49706 21.9 7.9 21.4971 7.9 21H6.1ZM7.6364 0.363604C7.28492 0.0121326 6.71508 0.0121326 6.3636 0.363604L0.636039 6.09117C0.284567 6.44264 0.284567 7.01249 0.636039 7.36396C0.987511 7.71543 1.55736 7.71543 1.90883 7.36396L7 2.27279L12.0912 7.36396C12.4426 7.71543 13.0125 7.71543 13.364 7.36396C13.7154 7.01249 13.7154 6.44264 13.364 6.09117L7.6364 0.363604ZM7.9 21L7.9 1H6.1L6.1 21H7.9Z" fill="black"/>
</svg>
